<svg width="7" height="6" viewBox="0 0 7 6" fill="none" xmlns="http://www.w3.org/2000/svg">
<path d="M1.20503 5.95027C1.32099 6.03793 1.46804 6.00683 1.64338 5.87957L3.13944 4.78227L4.63832 5.87957C4.81366 6.00683 4.95789 6.03793 5.07667 5.95027C5.19262 5.8626 5.21808 5.71837 5.14737 5.51192L4.5563 3.75285L6.06648 2.66687C6.24186 2.54244 6.31252 2.41235 6.26728 2.27094C6.22205 2.1352 6.08912 2.06732 5.87135 2.07015L4.01896 2.08146L3.45619 0.313909C3.38831 0.104628 3.28649 0 3.13944 0C2.99521 0 2.89339 0.104628 2.82552 0.313909L2.26273 2.08146L0.410346 2.07015C0.192583 2.06732 0.0596589 2.1352 0.0144097 2.27094C-0.0336631 2.41235 0.0398699 2.54244 0.215208 2.66687L1.7254 3.75285L1.13433 5.51192C1.06362 5.71837 1.08908 5.8626 1.20503 5.95027Z" fill="#8E8E93"/>
</svg>
